v 0.128482379411076 -0.526872888006913 -0.0230573738652909
v 0.167601969635408 -0.289770774279686 0.0828594142376718
v 0.0607635363698611 -0.0367865122432248 -0.150559470410747
v 0.441635058571753 -0.0259371958787362 0.127543714149429
v -0.0733386618675913 -0.55767944923467 -0.167994990606066
v -0.0703256246107057 -0.472616264313195 -0.237696560528168
v -0.0549653762702708 -0.546912364023049 -0.0319990399835068
v 0.319531250519035 -0.0829490934422484 0.137793452413809
v 0.132003835092475 0.111433117576883 0.189254742612573
v 0.472218954370961 0.0930758096194096 0.121008469290539
v 0.530138039496872 0.090502440228448 0.0483284678835487
v 0.464767632974915 0.15249137120814 -0.0675411713851426
v 0.324875218531012 0.0874199183157865 -0.135618512250099
v 0.405460098383038 0.200712507652194 -0.0190485851127078
v -0.059474601759876 -0.189819711953941 -0.230524335073238
v -0.271382891504355 -0.200899081040723 -0.130090208018958
v 0.058575385944988 0.0531791289387677 0.152820447556887
v 0.203138719980071 0.0727109935917449 -0.150279643316736
v -0.13958513209195 -0.25167393547386 0.0961555350559196
v 0.192193769795657 0.277172547561464 0.101798876658612
v 0.0348154361118109 0.110608084620228 -0.103971393796512
v 0.0676659474095098 0.0542250979475653 -0.153200361260309
v -0.316120117157367 -0.250488510131958 -0.0704293978424154
v 0.0138471722587117 -0.0259246470563596 0.0841258884795037
v -0.00873888405904196 0.050235256769924 -0.191139800403133
v -0.148037742835858 -0.0715859683422636 -0.183680566525627
v -0.2358787826176 -0.374810311718066 0.0176808776389733
v -0.336900913891826 -0.123968684979858 0.0690475166684039
v -0.0854566919151677 -0.0563554308369511 0.126594119322175
v 0.18419056418278 0.224212573410518 0.140425571595479
v -0.0909871785703818 0.041201982287199 0.183929880323726
v -0.448789035253023 -0.0388274993983179 -0.102878520143041
v -0.0974844142852324 0.26754642517723 0.294947289337326
v -0.140031369613991 0.252690341814076 -0.104691833412285
v -0.222369713182949 0.133074331679998 -0.215649436150376
v -0.563124387198729 -0.0261040783745284 -0.00490959766600832
v -0.122733693051801 0.179865642637814 0.264692048370394
v 0.00314555169623302 0.452162881306666 0.156070075507975
v 0.179488547770365 0.302822276658427 0.0115059243627864
v -0.123228085143831 0.29018799210913 -0.0800199192549396
v -0.330396737995495 0.133067715889488 -0.175081715105813
v -0.0577718580095212 0.30297802052685 0.270132699047666
v -0.06072611400596 0.440977498409318 0.23127970000404
v -0.422618681244881 0.145072190192434 -0.136957764775974
v -0.483030798941234 0.137810514616443 -0.122830934907843
v -0.272767695387672 0.210789327508904 0.236440929973548
v -0.627998637277344 0.153921463809274 -0.0292664686210445
v -0.389264168049055 0.207930096080717 0.204576537395365
v -0.585720875201976 0.220740348558352 0.0915139064130727
v -0.518290254431628 0.212315978281447 0.152071334128088
v -0.594365521777623 0.254505358672858 0.0497227188462316
v -0.220663916639596 0.384508427006726 0.168870196572595
v -0.430315544776868 0.327483007244291 0.108364128310292
v -0.329828594374117 0.394143071673397 0.0475080670484443
v -0.107792931542471 0.495995737309128 0.0576707221844581
v -0.0643844235574019 0.517999197940813 0.0937893060022125
v -0.0729836647031782 -0.338735079521023 -0.257793644962209
v 0.179069118324983 -0.480692205818678 -0.202011276027774
v 0.332781569889132 -0.35093354990088 -0.200526076200193
v 0.396088580682972 -0.439001742296115 -0.134798621339776
v 0.307700976325376 -0.501097985395763 -0.113343759866174
v 0.357995343228618 -0.440466542283531 0.00547849757068479
v 0.43739038104054 -0.202228965315691 -0.158313423145409
v 0.399156593177445 -0.0668095162913064 -0.150309487499847
v 0.510475961217083 -0.360912912285154 -0.0329690894863348
v 0.497426383324474 -0.341196387128398 -0.114637333021812
v 0.471712366357461 -0.359255455743719 0.0279864725492622
v 0.517069471236917 -0.0808151904107625 0.0336279156946206
vn 0.1353477 -0.848918 0.5109005
vn 0.04857866 -0.2577244 0.9649965
vn 0.1744354 0.05477426 -0.9831439
vn 0.4925402 -0.1406244 0.8588533
vn -0.3664155 -0.8543897 -0.3684536
vn -0.2325822 -0.3277007 -0.9157062
vn -0.1731974 -0.7015141 0.6912891
vn -0.02479139 -0.3028415 0.9527184
vn 0.1855571 -0.181681 0.9656917
vn 0.4671867 0.4294274 0.7728705
vn 0.9643068 0.2632741 0.02826652
vn 0.5366391 0.568537 -0.6235258
vn 0.128672 0.2859187 -0.9495757
vn 0.5034173 0.8568686 0.1111184
vn 0.07445362 0.09804527 -0.992393
vn -0.5301455 -0.219 -0.8191366
vn 0.001932078 -0.6025239 0.7980985
vn 0.005498225 0.3367287 -0.9415857
vn -0.1381306 -0.2860426 0.9482086
vn 0.5546367 0.6260911 0.5480766
vn 0.1806483 0.591153 -0.7860689
vn 0.2874867 0.2910341 -0.9124969
vn -0.6773577 -0.5120962 -0.5281515
vn 0.1250466 -0.3595079 0.9247256
vn 0.3503655 0.4260533 -0.8340999
vn -0.4382352 -0.1051066 -0.8926939
vn -0.5276622 -0.601189 0.6001203
vn -0.1437453 -0.2662317 0.9531307
vn 0.01141124 -0.2890009 0.9572608
vn 0.4132664 0.3070268 0.8572896
vn 0.1299892 -0.5506225 0.8245713
vn -0.4703236 -0.2751853 -0.838492
vn 0.1038754 0.02934637 0.9941573
vn 0.1755547 0.5602676 -0.8094941
vn -0.2195106 0.1933981 -0.9562491
vn -0.8473915 -0.5284879 0.05126506
vn -0.03806099 -0.4172979 0.9079725
vn 0.6189171 0.719175 0.3157988
vn 0.3327655 0.7190392 -0.6101228
vn -0.02720351 0.5823779 -0.8124629
vn -0.2819906 0.2026585 -0.9377691
vn 0.4852284 0.2556989 0.8361647
vn 0.1971851 0.5837478 0.7876272
vn -0.279459 0.4705293 -0.8369617
vn -0.3863352 0.200898 -0.900214
vn -0.2941657 -0.1730449 0.9399586
vn -0.790288 0.2971177 -0.5358788
vn -0.3012844 0.03090232 0.9530335
vn -0.8242794 0.0447599 0.5644113
vn -0.4234606 0.09641131 0.9007697
vn -0.6666445 0.7015291 0.2518771
vn -0.4020854 0.6178202 0.6757408
vn -0.4095149 0.7058261 0.5780199
vn -0.4010857 0.8688146 -0.2903299
vn -0.03105824 0.7343784 -0.6780293
vn 0.009844977 0.9911987 0.1320164
vn -0.2239463 0.0407097 -0.9737509
vn 0.2303955 -0.5743856 -0.785493
vn 0.261242 -0.08180879 -0.9618003
vn 0.5247362 -0.6287122 -0.5739102
vn 0.3950213 -0.9174892 -0.04660157
vn 0.2713643 -0.7006565 0.6598801
vn 0.6838931 0.09821358 -0.7229415
vn 0.3551469 0.1889441 -0.9155167
vn 0.8186095 -0.5667025 0.09341668
vn 0.781329 -0.1841944 -0.5963199
vn 0.4823641 -0.4724641 0.7376331
vn 0.9851658 -0.04003488 0.1668698
f 6//6 58//58 5//5
f 5//5 1//1 7//7
f 7//7 1//1 2//2
f 9//9 8//8 4//4
f 4//4 68//68 11//11
f 12//12 64//64 13//13
f 10//10 4//4 11//11
f 12//12 11//11 64//64
f 5//5 7//7 27//27
f 19//19 7//7 2//2
f 24//24 2//2 8//8
f 9//9 4//4 10//10
f 10//10 11//11 14//14
f 14//14 11//11 12//12
f 18//18 13//13 3//3
f 16//16 57//57 6//6
f 16//16 6//6 5//5
f 27//27 7//7 19//19
f 17//17 8//8 9//9
f 9//9 10//10 30//30
f 22//22 18//18 3//3
f 19//19 2//2 29//29
f 29//29 2//2 24//24
f 14//14 12//12 39//39
f 39//39 12//12 13//13
f 39//39 13//13 18//18
f 22//22 3//3 15//15
f 26//26 15//15 57//57
f 16//16 5//5 23//23
f 23//23 5//5 27//27
f 24//24 8//8 17//17
f 30//30 10//10 20//20
f 20//20 10//10 14//14
f 20//20 14//14 39//39
f 39//39 18//18 21//21
f 21//21 18//18 22//22
f 25//25 22//22 15//15
f 16//16 26//26 57//57
f 21//21 22//22 25//25
f 28//28 27//27 19//19
f 35//35 25//25 15//15
f 35//35 15//15 26//26
f 28//28 19//19 29//29
f 31//31 29//29 24//24
f 31//31 24//24 17//17
f 34//34 21//21 25//25
f 34//34 25//25 35//35
f 32//32 16//16 23//23
f 36//36 23//23 27//27
f 31//31 17//17 9//9
f 35//35 26//26 41//41
f 41//41 26//26 16//16
f 32//32 23//23 36//36
f 37//37 31//31 33//33
f 33//33 31//31 9//9
f 33//33 9//9 30//30
f 42//42 30//30 20//20
f 41//41 16//16 32//32
f 33//33 30//30 42//42
f 38//38 20//20 39//39
f 39//39 21//21 34//34
f 34//34 35//35 41//41
f 50//50 36//36 27//27
f 27//27 28//28 50//50
f 46//46 31//31 37//37
f 46//46 37//37 33//33
f 43//43 42//42 20//20
f 43//43 20//20 38//38
f 38//38 39//39 56//56
f 39//39 34//34 40//40
f 40//40 34//34 41//41
f 44//44 41//41 32//32
f 45//45 32//32 47//47
f 47//47 32//32 36//36
f 48//48 50//50 28//28
f 48//48 28//28 29//29
f 48//48 29//29 46//46
f 46//46 29//29 31//31
f 43//43 38//38 56//56
f 56//56 39//39 55//55
f 55//55 39//39 40//40
f 45//45 44//44 32//32
f 44//44 45//45 47//47
f 47//47 36//36 49//49
f 49//49 36//36 50//50
f 51//51 47//47 49//49
f 54//54 44//44 47//47
f 54//54 47//47 51//51
f 51//51 49//49 50//50
f 53//53 51//51 50//50
f 40//40 41//41 44//44
f 54//54 51//51 53//53
f 53//53 50//50 48//48
f 40//40 44//44 54//54
f 52//52 53//53 48//48
f 52//52 48//48 46//46
f 54//54 53//53 52//52
f 55//55 40//40 54//54
f 52//52 46//46 33//33
f 56//56 55//55 54//54
f 56//56 54//54 52//52
f 43//43 52//52 33//33
f 56//56 52//52 43//43
f 42//42 43//43 33//33
f 57//57 15//15 59//59
f 57//57 59//59 6//6
f 6//6 59//59 58//58
f 5//5 61//61 1//1
f 58//58 61//61 5//5
f 58//58 60//60 61//61
f 58//58 59//59 60//60
f 61//61 62//62 1//1
f 1//1 62//62 2//2
f 3//3 64//64 15//15
f 15//15 64//64 59//59
f 3//3 13//13 64//64
f 64//64 63//63 59//59
f 59//59 66//66 60//60
f 60//60 65//65 61//61
f 61//61 65//65 67//67
f 61//61 67//67 62//62
f 59//59 63//63 66//66
f 60//60 66//66 65//65
f 62//62 67//67 2//2
f 67//67 8//8 2//2
f 63//63 68//68 66//66
f 66//66 68//68 65//65
f 65//65 68//68 67//67
f 64//64 11//11 63//63
f 63//63 11//11 68//68
f 68//68 4//4 67//67
f 67//67 4//4 8//8
