v -0.148340706546112 -0.324300952310883 -0.144454062794181
v -0.165680721579431 -0.344216726099161 0.0493772367262658
v 0.0908326434656085 -0.235240968832552 -0.009854880352029
v 0.340819636652394 -0.164507992375013 -0.0200535217624374
v -0.172446969520808 -0.321712490115556 -0.0686520572682651
v 0.335286546945039 0.0414101179162947 -0.166377190231446
v 0.119351312386758 0.16879218203088 -0.139934411441991
v -0.250820477974084 0.0909021347529675 -0.307713207947442
v -0.252530847930351 0.190223265512183 -0.275789434926684
v -0.140248479020023 0.305219872232662 -0.253790339186232
v -0.240144057224419 -0.0710082285446874 -0.0399966918106219
v 0.420314353600872 -0.0745939270422812 -0.199534433793952
v 0.539215048937503 5.83677366578221E-05 0.0626313240667632
v -0.0820172712307448 0.373139904454006 -0.139961920418059
v 0.301859265535438 -0.180752123157582 0.187968052335478
v -0.183523083582998 -0.341703850201463 0.179510818643829
v 0.416868912558699 0.160222259774103 0.0567577420390904
v -0.292338708436245 0.118343282805052 -0.152925291590758
v -0.303650352534502 0.0814150737569522 -0.012741493036128
v -0.290896916788866 -0.0824856442198229 0.18415963989488
v 0.154135509571777 0.310901787382141 0.00407554270251006
v -0.0668759023917043 0.380663737879694 -0.107390171763404
v -0.329003558587769 0.0675556408235628 0.176870413812481
v 0.0376649180564385 -0.261679383107009 0.351474742169499
v -0.170543750577337 -0.278723136045903 0.388333574051165
v 0.156139560926632 -0.230840856088464 0.299738271089416
v 0.358815950858591 -0.0760708618719472 0.377274102303971
v 0.214784600045789 0.363687646050857 0.120733169327798
v -0.259769073567172 -0.116092846750114 0.374428935619737
v 0.507363644827333 0.0705851456404103 0.326070068541041
v 0.433157558527351 0.254903878249481 0.295860889253096
v -0.192465753931839 0.171919253294702 0.00620388443468038
v 0.50169255595813 0.157259932286529 0.373626502923647
v 0.272547887869725 0.364221878007584 0.239525921228356
v -0.315447772195621 0.0762990982633493 0.104363108496189
v -0.127700277629031 -0.190062626102843 0.516750167274564
v 0.353734671826736 0.066992969794956 0.493386134498826
v 0.163221070184629 0.435447479249033 0.230953785708588
v 0.0306277611749345 0.46718249328313 0.122546044722715
v -0.321446223675698 0.0740949753897036 0.268463720740461
v -0.293737677332506 0.0891708072437541 0.385252167832139
v -0.0990928246043867 -0.0501110122097053 0.604729286927395
v -0.247717800002742 0.0811064020008288 0.489481251982898
v -0.111404363858459 0.0294739657133113 0.623779423117666
v 0.139083745249737 0.138508848027674 0.61882834427164
v 0.191988581010513 0.0573517959694147 0.546260127717329
v -0.0535408603790183 0.27477745934906 0.540321829211226
v 0.0507858734951171 0.167738794100842 0.651884351409321
v 0.248167688629926 0.130557267339987 0.557329497348872
v -0.125614192729949 0.298037274388101 0.319506245860142
v 0.0135364410597919 0.405790241824394 0.376886076904602
v 0.179208478918904 0.308291877209607 0.350072622411004
v 0.349153105728259 0.122567308292834 0.508756180826136
v 0.0782515535531593 0.477436349591506 0.256248242613586
v -0.131208512474708 -0.297814938558506 -0.236247510940596
v -0.173485996940066 -0.147437082741275 -0.322545400438725
v -0.0800948119371196 -0.272604182782531 -0.344484038038557
v -0.120681553151724 -0.113456098351068 -0.420107579994036
v -0.10989005068495 -0.203303295005896 -0.389747490448003
v 0.0986840831440071 -0.210352203124477 -0.291652766373373
v -0.115349353754047 -0.042303591249707 -0.436997437668072
v 0.175540742780759 -0.21169150828552 -0.252290091418875
v 0.261333691645434 -0.166917744915459 -0.266061631410519
v -0.00500993207981347 0.133293574509419 -0.350552888785222
v 0.0175735085014682 0.0580090160068963 -0.411559939485151
v 0.0931703216426295 -0.0892287683249758 -0.305734625388574
v 0.148316049400842 0.0255509830083214 -0.340332306967022
v 0.37215907179582 -0.0914804363939859 -0.259795929584581
vn -0.233387 -0.9477963 -0.2172846
vn -0.2661923 -0.96267 -0.04907284
vn 0.3337926 -0.9426321 0.005210444
vn 0.477322 -0.8773041 -0.05001263
vn -0.8997494 -0.4018195 -0.1702705
vn 0.482516 0.647659 -0.5896745
vn 0.4861363 0.6684266 -0.5629187
vn -0.7384056 0.05024335 -0.6724826
vn -0.79164 0.5728777 -0.2124085
vn -0.1927494 0.6121892 -0.7668586
vn -0.942112 -0.2981232 -0.1534519
vn 0.8460501 -0.3272278 -0.4208576
vn 0.9755444 -0.2126345 -0.05567474
vn -0.07947319 0.9214751 -0.3802207
vn 0.4190566 -0.907207 0.03697283
vn -0.2951839 -0.9511895 0.09002689
vn 0.6227767 0.6340714 -0.4583694
vn -0.9910741 0.1208062 -0.05637361
vn -0.9839149 0.1531715 -0.09192303
vn -0.9504576 -0.3029971 -0.06944822
vn 0.4708506 0.6383675 -0.6089225
vn -0.1567925 0.9631722 -0.2184384
vn -0.9450378 0.3242945 -0.04167249
vn 0.259458 -0.9241828 0.280299
vn -0.4063033 -0.7917519 0.4561212
vn 0.3919677 -0.7572538 0.5224251
vn 0.5350816 -0.6827413 0.4975459
vn 0.5069919 0.763316 -0.4003848
vn -0.9003499 -0.3065661 0.3088485
vn 0.8208553 -0.3752084 0.4305986
vn 0.6607947 0.7501706 0.02437879
vn -0.7095675 0.703082 0.04679338
vn 0.8656844 0.1834259 0.4657738
vn 0.4714715 0.8336299 0.2877079
vn -0.9389065 0.3266775 -0.1083347
vn -0.2489377 -0.5966983 0.7628769
vn 0.5239774 -0.3604207 0.7717152
vn 0.5126705 0.8335009 0.2060222
vn -0.1391978 0.9804764 -0.1388879
vn -0.9572909 0.2766518 0.08401055
vn -0.8870117 0.3457613 0.3060381
vn -0.004014311 -0.4586323 0.888617
vn -0.798686 0.003550594 0.6017374
vn -0.4827612 0.07522396 0.8725153
vn 0.4762613 0.1856558 0.8594806
vn 0.3256973 -0.5350512 0.7795135
vn -0.5408179 0.6271995 0.5604792
vn 0.07741009 0.3097237 0.9476703
vn 0.4428679 0.1246724 0.8878765
vn -0.7186676 0.6875061 0.1041748
vn 0.01375054 0.8481506 0.5295767
vn 0.383899 0.7171334 0.5816711
vn 0.4417101 0.4991261 0.7454966
vn 0.1162268 0.9641551 0.2385295
vn -0.7291376 -0.5822275 -0.3596797
vn -0.8588988 -0.3348009 -0.3875582
vn 0.04883058 -0.7937028 -0.6063425
vn -0.3643718 -0.2801286 -0.8881223
vn -0.2187321 -0.4412321 -0.8703278
vn 0.3502019 -0.374046 -0.8587481
vn 0.008408676 0.003810193 -0.9999573
vn 0.3908113 -0.8935113 -0.2211428
vn 0.3540602 -0.6089993 -0.7097614
vn 0.212245 0.6464383 -0.7328503
vn 0.2450509 0.354187 -0.9024974
vn 0.3479613 -0.2408635 -0.9060396
vn 0.4585838 0.2126889 -0.8628235
vn 0.6120641 0.03948136 -0.789822
f 5//5 1//1 2//2
f 10//10 64//64 8//8
f 4//4 12//12 13//13
f 10//10 8//8 9//9
f 18//18 9//9 8//8
f 18//18 8//8 5//5
f 18//18 5//5 11//11
f 7//7 64//64 14//14
f 15//15 4//4 13//13
f 13//13 12//12 17//17
f 17//17 12//12 6//6
f 14//14 64//64 10//10
f 18//18 11//11 19//19
f 11//11 5//5 20//20
f 20//20 5//5 2//2
f 15//15 3//3 4//4
f 21//21 6//6 7//7
f 21//21 7//7 14//14
f 20//20 2//2 16//16
f 16//16 2//2 3//3
f 14//14 10//10 9//9
f 16//16 3//3 15//15
f 17//17 6//6 21//21
f 32//32 9//9 18//18
f 24//24 16//16 15//15
f 15//15 13//13 27//27
f 13//13 17//17 31//31
f 17//17 21//21 28//28
f 14//14 9//9 32//32
f 32//32 18//18 19//19
f 19//19 11//11 20//20
f 25//25 16//16 24//24
f 26//26 24//24 15//15
f 26//26 15//15 27//27
f 27//27 13//13 30//30
f 30//30 13//13 33//33
f 33//33 13//13 31//31
f 29//29 20//20 16//16
f 29//29 16//16 25//25
f 31//31 17//17 28//28
f 28//28 21//21 14//14
f 28//28 14//14 22//22
f 35//35 19//19 20//20
f 46//46 26//26 27//27
f 37//37 27//27 30//30
f 37//37 30//30 33//33
f 34//34 31//31 28//28
f 28//28 22//22 39//39
f 35//35 32//32 19//19
f 29//29 25//25 36//36
f 36//36 25//25 24//24
f 36//36 24//24 26//26
f 46//46 27//27 37//37
f 53//53 37//37 33//33
f 53//53 33//33 31//31
f 34//34 28//28 38//38
f 38//38 28//28 39//39
f 22//22 14//14 50//50
f 35//35 20//20 23//23
f 40//40 23//23 20//20
f 40//40 20//20 29//29
f 42//42 36//36 26//26
f 41//41 40//40 29//29
f 43//43 29//29 36//36
f 41//41 29//29 43//43
f 43//43 36//36 42//42
f 43//43 42//42 44//44
f 32//32 35//35 23//23
f 32//32 23//23 40//40
f 41//41 43//43 47//47
f 47//47 43//43 44//44
f 46//46 42//42 26//26
f 50//50 41//41 47//47
f 47//47 44//44 48//48
f 48//48 44//44 42//42
f 48//48 42//42 45//45
f 45//45 42//42 46//46
f 50//50 40//40 41//41
f 45//45 46//46 49//49
f 32//32 40//40 50//50
f 51//51 50//50 47//47
f 51//51 47//47 48//48
f 51//51 48//48 45//45
f 49//49 46//46 37//37
f 52//52 51//51 45//45
f 52//52 45//45 49//49
f 53//53 49//49 37//37
f 52//52 49//49 53//53
f 14//14 32//32 50//50
f 34//34 52//52 53//53
f 39//39 50//50 51//51
f 39//39 51//51 54//54
f 54//54 51//51 38//38
f 38//38 51//51 52//52
f 22//22 50//50 39//39
f 39//39 54//54 38//38
f 34//34 38//38 52//52
f 34//34 53//53 31//31
f 5//5 56//56 55//55
f 5//5 55//55 1//1
f 2//2 1//1 62//62
f 2//2 62//62 3//3
f 5//5 8//8 56//56
f 56//56 59//59 55//55
f 55//55 59//59 57//57
f 55//55 57//57 1//1
f 1//1 57//57 62//62
f 8//8 58//58 56//56
f 56//56 58//58 59//59
f 57//57 59//59 60//60
f 59//59 66//66 60//60
f 57//57 60//60 62//62
f 3//3 62//62 4//4
f 8//8 61//61 58//58
f 59//59 58//58 66//66
f 58//58 61//61 66//66
f 66//66 63//63 60//60
f 60//60 63//63 62//62
f 8//8 64//64 61//61
f 64//64 65//65 61//61
f 61//61 67//67 66//66
f 61//61 65//65 67//67
f 62//62 63//63 12//12
f 62//62 12//12 4//4
f 65//65 64//64 67//67
f 66//66 67//67 63//63
f 63//63 67//67 68//68
f 63//63 68//68 12//12
f 64//64 7//7 67//67
f 67//67 7//7 6//6
f 67//67 6//6 68//68
f 68//68 6//6 12//12
