v 0.27485482659767 0.00762592697540302 0.292441299508548
v 0.287799713407818 -0.191988731237585 0.305029471632299
v 0.322396537593466 -0.23119181332258 0.0160979564767606
v 0.302562262945896 -0.268508213840039 -0.00167018589177442
v 0.0302594629994546 -0.295043409628887 -0.135018073749699
v -0.090147053915535 -0.298351998094264 -0.054367540000144
v -0.330212384783671 -0.190431906327923 0.24373357625565
v -0.206046838424598 -0.0688154146692939 0.348331786515849
v -0.245772519984331 -0.243401970422895 -0.15785842126393
v -0.33683832762893 -0.120390063700962 0.264700809423548
v -0.290760658724246 -0.013414487674412 0.304643413997191
v 0.256954781326434 0.0182777645172255 0.0296563136389113
v 0.216074927707632 -0.239354995852574 -0.224985141980487
v -0.442287855317131 -0.141397618145014 0.0207185033176973
v -0.255029521844637 0.108264710802771 0.342598365981671
v -0.0357293250194415 -0.250302472567053 -0.254981874897971
v 0.261469046794031 0.154600366981259 0.289754148464689
v -0.4678648355918 -0.0903826148370701 -0.116078588128295
v -0.304996710102042 0.0611732493294 0.116522006412876
v -0.139595540072105 -0.198195993098434 -0.292109202037196
v -0.232985900770814 -0.167610201870981 -0.309013796300113
v 0.33653126378382 -0.206578315030723 -0.152571231657706
v 0.0380252587726532 -0.0495133507006065 -0.249878755984234
v -0.118096382788624 0.268173595568766 0.323892028043269
v -0.335265379949367 -0.0588476356122832 -0.339377785226435
v -0.227951692980121 0.243071605292858 0.330449722740336
v -0.052583257334252 0.296214466410671 0.309705270805018
v 0.0467245601092853 0.317338940347413 0.299174705005229
v 0.23982350257492 0.352343300499234 0.254301989945007
v -0.455611396645119 0.0533510772476698 -0.144393288381586
v -0.432764222191596 0.116124824940844 -0.104233699078548
v -0.0407938455011597 0.283869749755726 0.142223836993268
v 0.27224368364965 0.260555577582634 0.118013822522794
v 0.338605553997203 -0.119825815863733 -0.228158137223316
v -0.127953433563302 0.0371564017212597 -0.32966586820581
v 0.255244715071726 0.369137025722969 0.0955260106658269
v -0.330086633610446 0.0608840569371597 -0.362716708166284
v -0.348955006286747 0.160690561726701 -0.360572282298627
v -0.404128098749092 0.167072198110246 -0.256344993791805
v -0.299438723001724 0.225572923688704 0.107390883735861
v 0.0498250868771431 0.32737222503359 0.262120714144285
v -0.326163550720694 0.216761267228087 -0.108891095045293
v 0.085478720107331 0.320411849026061 0.0534651111909645
v 0.252322757056496 0.372479128683752 0.00329028500105003
v 0.287481839067599 0.325547098943544 -0.0767900926968083
v 0.298120737831872 0.0202184949850738 -0.269105952949503
v 0.315832182052712 0.119230960998877 -0.282649323230118
v -0.212608473864496 0.223656999254924 -0.372899649169893
v 0.263012949799216 0.369493524098038 -0.10418397518981
v 0.285586282949217 0.355093329234862 -0.198708353846548
v 0.188838626470262 0.356154691206723 -0.0568838481392661
v 0.283565897697828 0.327337586444726 -0.295167371806556
v -0.0253962876797123 0.291556530683942 -0.306101243928511
v 0.127110496270144 0.311539734216942 -0.339466939802629
v -0.0666986211988896 0.245109872310951 -0.00932476737916857
v -0.06882072721463 0.236411622017215 -0.365774206841827
v -0.137578396486778 0.261936109700022 -0.248215780586205
v 0.0254046993374994 0.0177831284425489 0.270222733817855
v 0.185397630572908 -0.239610061857508 0.318537213930044
v 0.00577898412629506 -0.0129191721900562 0.280120580349373
v 0.256732867510029 -0.266869792661565 0.1899486463204
v 0.057958132376239 -0.25255082214471 0.337041218170374
v -0.0909763346353198 -0.223049199870767 0.347361127691187
v 0.0777700163443725 -0.319565325126213 0.122980723732582
v -0.0326915313254376 -0.264251497071235 0.326023923920135
v -0.181194319446508 -0.214017329690928 0.352450715127911
v -0.138896710133499 -0.300399666220717 0.151732373197366
v -0.304323664507923 -0.25205492949865 0.0397204959049182
vn 0.7768955 0.119489 0.6181875
vn 0.7689057 -0.4433578 0.4606711
vn 0.9931222 -0.09053741 0.07423723
vn 0.543541 -0.8390335 -0.02420553
vn 0.01520343 -0.9738568 -0.2266531
vn -0.1426628 -0.9826941 -0.1181501
vn -0.65259 -0.5145277 0.5562261
vn -0.1609279 -0.01704537 0.986819
vn -0.3227122 -0.9093505 -0.2625617
vn -0.8058981 0.0313156 0.5912253
vn -0.8108912 0.09470656 0.5774826
vn 0.9910217 0.09458408 0.09449826
vn 0.272898 -0.6741447 -0.6863348
vn -0.9486948 -0.1243744 0.2907048
vn -0.6348007 0.1154512 0.764002
vn 0.0009127382 -0.6861546 -0.7274551
vn 0.5338871 0.08747106 0.8410192
vn -0.7891992 -0.5421392 -0.28853
vn -0.9144882 0.2323156 0.3312714
vn 0.1778059 -0.296091 -0.9384642
vn -0.2369745 -0.6199955 -0.7479631
vn 0.9192886 -0.3684373 -0.1384283
vn 0.1518104 -0.1722987 -0.9732763
vn -0.09573981 0.6244493 0.7751755
vn -0.4968248 -0.2709701 -0.8244637
vn -0.3095359 0.4107694 0.8575873
vn -0.1675734 0.847786 0.5031679
vn -0.001343074 0.4854995 0.8742359
vn 0.548036 0.705343 0.4496084
vn -0.9704927 0.05698152 -0.2343014
vn -0.87225 0.4165138 0.2563128
vn -0.2890575 0.9484222 -0.1301578
vn 0.9905357 0.1145081 0.07567581
vn 0.8462341 -0.1260052 -0.5176974
vn 0.1970903 -0.1934763 -0.9611048
vn 0.3718471 0.9273294 0.04230765
vn -0.2857645 -0.138881 -0.9481829
vn -0.6954474 0.2032418 -0.6892357
vn -0.677368 0.7152669 -0.1719472
vn -0.6078479 0.7858781 0.113651
vn -0.2267091 0.9723662 0.05574069
vn -0.4062472 0.9134511 0.0238817
vn -0.3273621 0.9432083 -0.05649848
vn 0.4165747 0.9076968 -0.05051724
vn 0.8939196 0.418442 0.1606674
vn 0.09314366 -0.1999747 -0.9753637
vn 0.5009692 -0.09473167 -0.860265
vn -0.2371899 0.7144899 -0.6582134
vn 0.1320319 0.982363 0.132403
vn 0.7810273 0.6202339 -0.07284393
vn -0.1447238 0.9877963 0.05756313
vn 0.3952995 0.7893277 -0.4697874
vn -0.1755897 0.9497688 -0.2590508
vn 0.03557413 0.5592802 -0.828215
vn -0.2705333 0.9620271 -0.03626993
vn 0.08418853 0.08302637 -0.9929849
vn -0.2836439 0.9587132 -0.02037739
vn 0.11896 0.0459988 0.991833
vn 0.1876449 -0.4835129 0.854988
vn 0.1859068 0.2064663 0.9606302
vn 0.4250565 -0.8695426 0.2514411
vn 0.1092314 -0.3496585 0.9304878
vn 0.08470212 -0.1021906 0.9911522
vn 0.08016889 -0.9890788 0.1236772
vn -0.05444044 -0.8197926 0.570067
vn -0.3067721 -0.635789 0.7082818
vn -0.2274435 -0.9677074 0.1086823
vn -0.4804432 -0.87652 0.02978249
f 1//1 2//2 3//3
f 14//14 7//7 10//10
f 13//13 4//4 5//5
f 14//14 68//68 7//7
f 19//19 14//14 10//10
f 10//10 8//8 11//11
f 11//11 8//8 15//15
f 12//12 1//1 3//3
f 3//3 4//4 22//22
f 22//22 4//4 13//13
f 16//16 5//5 9//9
f 19//19 10//10 11//11
f 13//13 5//5 16//16
f 15//15 8//8 58//58
f 17//17 58//58 1//1
f 16//16 9//9 21//21
f 9//9 68//68 18//18
f 18//18 68//68 14//14
f 26//26 15//15 58//58
f 26//26 58//58 24//24
f 33//33 1//1 12//12
f 12//12 3//3 22//22
f 34//34 22//22 13//13
f 20//20 16//16 21//21
f 19//19 11//11 15//15
f 17//17 1//1 33//33
f 13//13 16//16 23//23
f 23//23 16//16 20//20
f 31//31 14//14 19//19
f 27//27 24//24 58//58
f 34//34 12//12 22//22
f 21//21 9//9 18//18
f 30//30 18//18 14//14
f 30//30 14//14 31//31
f 40//40 19//19 15//15
f 40//40 15//15 26//26
f 28//28 58//58 17//17
f 29//29 17//17 33//33
f 34//34 13//13 23//23
f 25//25 21//21 18//18
f 28//28 27//27 58//58
f 28//28 17//17 29//29
f 23//23 20//20 35//35
f 25//25 18//18 30//30
f 40//40 26//26 24//24
f 40//40 24//24 27//27
f 46//46 34//34 23//23
f 35//35 20//20 21//21
f 31//31 19//19 40//40
f 32//32 40//40 27//27
f 41//41 27//27 28//28
f 41//41 28//28 29//29
f 35//35 21//21 25//25
f 37//37 25//25 30//30
f 39//39 30//30 31//31
f 32//32 27//27 41//41
f 41//41 29//29 36//36
f 36//36 29//29 33//33
f 35//35 25//25 37//37
f 38//38 37//37 30//30
f 38//38 30//30 39//39
f 55//55 40//40 32//32
f 45//45 12//12 34//34
f 47//47 34//34 46//46
f 42//42 39//39 31//31
f 42//42 31//31 40//40
f 32//32 41//41 43//43
f 43//43 41//41 36//36
f 43//43 36//36 44//44
f 44//44 36//36 33//33
f 44//44 33//33 45//45
f 45//45 33//33 12//12
f 47//47 46//46 23//23
f 48//48 37//37 38//38
f 48//48 38//38 39//39
f 51//51 44//44 45//45
f 51//51 45//45 49//49
f 43//43 44//44 51//51
f 49//49 45//45 50//50
f 50//50 45//45 34//34
f 50//50 34//34 47//47
f 52//52 50//50 47//47
f 53//53 49//49 50//50
f 32//32 43//43 55//55
f 55//55 43//43 51//51
f 53//53 50//50 52//52
f 53//53 52//52 54//54
f 54//54 52//52 47//47
f 55//55 51//51 57//57
f 57//57 51//51 49//49
f 57//57 49//49 53//53
f 56//56 47//47 23//23
f 56//56 53//53 54//54
f 56//56 54//54 47//47
f 42//42 55//55 57//57
f 35//35 56//56 23//23
f 53//53 56//56 48//48
f 40//40 55//55 42//42
f 42//42 57//57 39//39
f 39//39 57//57 48//48
f 48//48 57//57 53//53
f 48//48 56//56 37//37
f 37//37 56//56 35//35
f 58//58 59//59 1//1
f 1//1 59//59 2//2
f 2//2 59//59 61//61
f 2//2 61//61 4//4
f 2//2 4//4 3//3
f 58//58 60//60 62//62
f 58//58 62//62 59//59
f 61//61 64//64 4//4
f 58//58 8//8 60//60
f 59//59 62//62 64//64
f 59//59 64//64 61//61
f 8//8 63//63 60//60
f 60//60 63//63 62//62
f 63//63 65//65 62//62
f 62//62 65//65 64//64
f 8//8 66//66 63//63
f 63//63 66//66 65//65
f 65//65 67//67 64//64
f 64//64 5//5 4//4
f 66//66 67//67 65//65
f 8//8 10//10 7//7
f 8//8 7//7 66//66
f 66//66 7//7 68//68
f 66//66 68//68 67//67
f 64//64 67//67 6//6
f 64//64 6//6 5//5
f 67//67 68//68 9//9
f 67//67 9//9 6//6
f 6//6 9//9 5//5
