v -0.0810301520112329 0.0794434250261674 0.0142683499970273
v -0.112405483733887 0.117846693527639 0.2905309851021
v 0.0750246656096486 0.0393841762481299 0.317986087121896
v -0.00901414099586138 -0.0586479839621742 0.276959947743836
v -0.102449769238105 -0.028564501323207 0.122864601573484
v 0.0603144376044362 0.0597401938560702 0.137726916926561
v 0.0204843768582757 -0.0904217871662497 0.172226186595603
v -0.242390273123914 0.0273647889019704 -0.0512479018524591
v -0.191215894389067 0.121423439422017 -0.0519890662410409
v 0.17946755311172 -0.104101501335312 0.317864089794981
v -0.0207280410927283 -0.0206289379423421 0.0216739079364507
v 0.0121675703574925 -0.0278010907038 -0.00678747705627192
v -0.0129847579457749 -0.0373072893378593 -0.0216478287135903
v 0.00661804060040246 0.0124779975788697 0.00750924683524321
v 0.219960718300203 -0.0619112915612175 0.321208765311228
v 0.216669868291548 -0.0964545445854137 0.256320581641536
v 0.000352283074397304 -0.00268196447171757 0.000980014085977616
v -0.0894957100070459 -0.0295305269810394 -0.0270334557706252
v -0.208576823004146 0.103862988847931 -0.26728310866598
v -0.006394674985981 0.0150247809778345 0.000550012291456531
v -9.27033159152142E-05 -0.0646808406587508 0.00321326704841576
v 0.19951617876593 0.0303601829195551 0.188260900433497
v 0.00622312754024859 -0.0681332296956076 0.0134079174144841
v -0.180783698848361 -0.0429654348980856 -0.197895007402315
v 0.194107179747419 -0.0759081171727763 0.0495820979594866
v 0.171471668020129 -0.163215302134336 0.195171262677859
v 0.148252401239789 -0.190409617921225 0.102979376169428
v -0.0389784949778984 -0.0953091352391842 -0.0874667732925338
v -0.23924767668136 0.033317132317838 -0.266714209253636
v -0.126277017324081 0.112852159651181 -0.274743135180509
v -0.0498697811862205 0.0998914474237703 -0.122859802491562
v -0.00468942126905235 0.0055615294201729 0.00200542804559345
v -0.0228424711107167 -0.0737311986046239 -0.0410268554179312
v -0.047304253694641 -0.00927598073987413 -0.229642282819545
v -0.184863210677024 0.0866351201042088 -0.294430231034397
v 0.132078920410388 0.0509799010603043 0.0279558217365878
v 0.15094668437365 -0.210245134673244 0.0307978945519737
v -0.0734242182644262 0.11897352889756 -0.251555330427843
v 0.0135133299540218 0.0706137934398103 -0.0817507000788451
v 0.153018862917395 0.0176782920359261 0.0131941276853773
v 0.0458009413606882 -0.172165152510107 -0.0879838111274366
v -0.00805907387135225 0.107846911984679 -0.228630197543214
v 0.176396459602818 -0.255386838059447 -0.0752990925881529
v -0.00999180330662703 -0.0705906965038127 -0.1110952582368
v 0.000635594521067778 0.0168327101156657 -0.243468660646638
v 0.0676431514355951 0.0984080264537461 -0.208562620719347
v 0.238261806880294 0.0697430971328499 -0.160078904596402
v 0.197579808396102 -0.112006665014154 0.038749332690247
v 0.245752732275074 0.0731545424970653 -0.216480384154195
v 0.188022242185606 -0.25230962633982 -0.111549022118282
v 0.011134033425583 -0.0371663858807236 -0.218626552500949
v 0.177548883756867 -0.0931135420824452 -0.293245980462995
v 0.183547481811235 -0.0384387432284363 -0.294491374307472
v 0.337165613781487 -0.088838719729994 -0.309493864349303
v 0.339735093614997 -0.0414924430677 -0.269654113342125
v 0.318410312120653 -0.212260272644329 -0.243463807860606
v 0.373789257749133 -0.154838908266359 -0.284679695125092
v 0.308828226889986 -0.0901068330648812 -0.117161432325214
v 0.312898272454207 -0.137238908010564 -0.125719193772033
v -0.308704381254132 0.0993878518107432 0.144790661150449
v -0.297685064336806 0.133143207525586 0.147169928119532
v -0.248187969829825 0.0742848170261832 0.292712611764934
v -0.240284328631775 0.120824447456271 0.291383667047053
v -0.194354038576321 0.146376916208362 0.181056343414209
v -0.235819461702315 0.0265795058902604 0.201498901808935
v -0.159884154451798 0.060454740758093 0.359942241244149
v -0.109004926535686 0.0928470636709351 0.350309730536141
v -0.0853513699834955 -0.020114273417634 0.303212309274396
vn 0.3998674 0.908174 -0.123799
vn 0.2181289 0.9519665 0.2148948
vn 0.2215851 0.4547662 0.8626052
vn -0.3013071 -0.7485841 0.5906233
vn -0.2770181 -0.9571862 -0.08399617
vn 0.2421023 0.9650373 -0.1004463
vn -0.4552647 -0.8895435 0.0380317
vn -0.5732514 -0.8131136 0.1011395
vn 0.05890842 0.9972444 -0.04509273
vn 0.1815987 -0.6213883 0.762167
vn -0.3867447 -0.8896908 -0.2426496
vn -0.9468054 0.3119213 -0.0791488
vn -0.0886174 -0.1784769 0.9799454
vn 0.2032503 0.9055312 -0.3724278
vn 0.8926316 0.05964234 0.4468238
vn 0.9213454 -0.3788315 0.08723153
vn -0.628547 -0.7712792 0.1002846
vn -0.1499959 -0.9422801 0.2993481
vn -0.430004 0.8075483 -0.4036858
vn 0.4250298 0.893009 -0.1479348
vn -0.9380337 0.3349658 0.08882917
vn 0.6947246 0.7192505 -0.006029159
vn -0.8575948 -0.4817303 0.1801864
vn -0.2307916 -0.8932607 -0.3857728
vn 0.9748797 0.150461 0.1642287
vn 0.2404373 -0.9387329 0.2469216
vn -0.2083739 -0.9481835 0.2398507
vn -0.4309896 -0.9002802 0.0611858
vn -0.7808977 -0.2879164 -0.5543491
vn 0.07992977 0.7553225 -0.6504608
vn 0.2816363 0.9192273 0.2751403
vn 0.2294618 0.6771531 0.6991501
vn -0.5992481 -0.566345 0.5658225
vn -0.03369601 -0.6779367 -0.7343476
vn -0.09744095 0.02269151 -0.9949825
vn 0.1806148 0.9826851 0.04132894
vn -0.2080103 -0.8849691 0.4166071
vn 0.2484378 0.9402012 -0.2330244
vn 0.1723978 0.9184327 0.3560342
vn 0.8610718 0.4657535 0.204032
vn -0.6203653 -0.7654007 -0.1711973
vn 0.2742061 0.8229461 -0.4975649
vn 0.3050323 -0.9070836 0.2900942
vn -0.2603893 -0.730169 -0.6317046
vn 0.05405291 -0.03469276 -0.9979352
vn 0.09132271 0.9292023 -0.3581107
vn 0.6180209 0.720315 0.3149547
vn 0.8978475 -0.3771765 0.2271736
vn 0.4902072 0.7753323 -0.3981918
vn -0.203977 -0.9002007 -0.3847495
vn -0.4232173 -0.6615742 -0.6190369
vn -0.3223424 -0.4101098 -0.8531737
vn -0.07063407 0.3244155 -0.9432738
vn 0.1818162 0.1100302 -0.9771572
vn 0.8551615 0.4904322 -0.1678539
vn 0.2347545 -0.844668 -0.4810679
vn 0.9892057 -0.1105303 -0.09620366
vn 0.8661391 0.3148954 0.3881288
vn 0.8066265 -0.3783997 0.4540565
vn -0.9438949 -0.3171889 0.09194376
vn -0.6904902 0.7211344 0.05646555
vn -0.8013542 -0.3151852 0.5084188
vn -0.3713889 0.7502672 0.5469638
vn 0.1335185 0.9910439 0.002158904
vn -0.543379 -0.8314823 0.1156565
vn -0.3000221 -0.1111098 0.9474393
vn 0.1391387 0.4546671 0.8797262
vn -0.2081302 -0.7420039 0.6372693
f 20//20 1//1 14//14
f 14//14 1//1 6//6
f 11//11 5//5 18//18
f 10//10 4//4 26//26
f 26//26 4//4 7//7
f 12//12 20//20 14//14
f 6//6 2//2 3//3
f 10//10 3//3 4//4
f 7//7 5//5 11//11
f 13//13 12//12 14//14
f 15//15 3//3 10//10
f 17//17 11//11 18//18
f 21//21 12//12 13//13
f 22//22 3//3 15//15
f 31//31 1//1 20//20
f 14//14 6//6 36//36
f 22//22 6//6 3//3
f 16//16 15//15 10//10
f 24//24 8//8 29//29
f 29//29 8//8 60//60
f 29//29 60//60 61//61
f 29//29 61//61 19//19
f 19//19 61//61 9//9
f 38//38 9//9 1//1
f 20//20 12//12 21//21
f 32//32 21//21 13//13
f 32//32 13//13 14//14
f 36//36 6//6 22//22
f 22//22 15//15 25//25
f 25//25 15//15 16//16
f 16//16 10//10 26//26
f 27//27 7//7 11//11
f 27//27 11//11 23//23
f 23//23 11//11 17//17
f 33//33 17//17 18//18
f 28//28 18//18 8//8
f 19//19 9//9 30//30
f 30//30 9//9 38//38
f 38//38 1//1 31//31
f 20//20 21//21 32//32
f 26//26 7//7 27//27
f 28//28 33//33 18//18
f 29//29 19//19 35//35
f 35//35 19//19 30//30
f 31//31 20//20 39//39
f 39//39 20//20 32//32
f 40//40 36//36 22//22
f 16//16 26//26 48//48
f 48//48 26//26 27//27
f 33//33 23//23 17//17
f 28//28 8//8 24//24
f 34//34 24//24 29//29
f 34//34 29//29 35//35
f 32//32 14//14 36//36
f 40//40 22//22 25//25
f 25//25 16//16 48//48
f 37//37 27//27 23//23
f 37//37 23//23 33//33
f 28//28 24//24 44//44
f 45//45 35//35 30//30
f 38//38 31//31 39//39
f 38//38 39//39 42//42
f 39//39 32//32 36//36
f 37//37 33//33 41//41
f 41//41 33//33 28//28
f 44//44 24//24 34//34
f 42//42 39//39 46//46
f 46//46 39//39 36//36
f 46//46 36//36 47//47
f 47//47 36//36 40//40
f 48//48 27//27 37//37
f 43//43 37//37 41//41
f 41//41 28//28 44//44
f 34//34 35//35 45//45
f 45//45 30//30 38//38
f 45//45 38//38 42//42
f 49//49 46//46 47//47
f 48//48 37//37 43//43
f 44//44 34//34 51//51
f 50//50 43//43 41//41
f 50//50 41//41 44//44
f 51//51 34//34 45//45
f 45//45 42//42 46//46
f 47//47 40//40 58//58
f 59//59 25//25 48//48
f 52//52 45//45 53//53
f 53//53 45//45 46//46
f 52//52 51//51 45//45
f 53//53 46//46 49//49
f 44//44 51//51 50//50
f 50//50 51//51 52//52
f 54//54 52//52 53//53
f 54//54 53//53 49//49
f 50//50 52//52 56//56
f 56//56 52//52 54//54
f 55//55 54//54 49//49
f 56//56 54//54 57//57
f 57//57 54//54 55//55
f 58//58 55//55 49//49
f 58//58 49//49 47//47
f 58//58 57//57 55//55
f 50//50 56//56 59//59
f 59//59 56//56 57//57
f 59//59 57//57 58//58
f 43//43 50//50 59//59
f 43//43 59//59 48//48
f 59//59 58//58 25//25
f 25//25 58//58 40//40
f 8//8 65//65 60//60
f 61//61 64//64 9//9
f 18//18 5//5 8//8
f 5//5 65//65 8//8
f 9//9 64//64 1//1
f 60//60 62//62 61//61
f 65//65 62//62 60//60
f 62//62 63//63 61//61
f 61//61 63//63 64//64
f 63//63 2//2 64//64
f 62//62 66//66 63//63
f 5//5 7//7 65//65
f 63//63 66//66 67//67
f 63//63 67//67 2//2
f 65//65 68//68 62//62
f 62//62 68//68 66//66
f 7//7 68//68 65//65
f 66//66 68//68 67//67
f 2//2 6//6 64//64
f 64//64 6//6 1//1
f 67//67 3//3 2//2
f 7//7 4//4 68//68
f 68//68 4//4 3//3
f 68//68 3//3 67//67
