v 0.231829212541967 -0.245335398256807 -0.136994956505403
v 0.0794874146326999 -0.316636629344692 0.0900921322232752
v 0.214831529270866 -0.0857724709938276 0.380493930360562
v 0.0922215573008272 0.161605780268216 0.163861975516558
v 0.335270229089286 0.310096310739778 -0.121837428672833
v 0.107701003358603 -0.046270962827402 -0.235326807717623
v 0.377834089068686 -0.227607481048262 0.340786951133561
v 0.228843112678247 -0.366737644607027 -0.0670769476532817
v 0.235666020582024 0.38880424589973 -0.160621118965137
v -0.0187626717421317 0.0674399976901167 0.374499300105667
v 0.105677460401754 -0.279264604377476 0.449325356367618
v 0.0841825472145493 -0.217938798234571 0.50071945162102
v 0.0841728524415133 0.314318414972063 0.0622082660053398
v -0.137017268207219 -0.377905956290761 0.286061657315793
v -0.0291044591748994 -0.306218977510661 0.414124558949008
v 0.131772460064463 0.207526617510865 -0.278273240012352
v -0.0937908283366553 0.0392022614635934 -0.35117094828279
v -0.00386799153201361 -0.260148027525119 -0.252627399968389
v -0.0232527525757143 -0.439955053870642 -0.0806879547237385
v -0.0895817725859678 -0.427454785989535 0.00710089294679216
v 0.0016338111520606 -0.0416383793248804 0.44347577979137
v -0.0168359726206407 0.354058115342607 0.0890191654552387
v -0.0598937628890182 0.332163817453342 -0.326752909868281
v 0.00124431842285816 -0.434777837897052 -0.146683034681188
v -0.0569288704786156 0.0785906787573198 0.36449186191354
v 0.109736933055773 0.416903043955446 -0.229068501646831
v -0.116607849860027 -0.397547246206521 0.140944560717294
v -0.079718920517012 0.152862277970688 0.31512283139953
v -0.129363420416646 -0.294483029779764 -0.266284138064686
v -0.103630743449077 0.203379269847875 0.281939505785598
v -0.0240194609190803 0.484142626068344 -0.227999757049109
v -0.104706482357761 0.135504708275421 -0.356157760901704
v -0.107964714172635 0.4723287038899 -0.178581990985079
v -0.158803689441209 -0.0284446288476319 -0.347185325539675
v -0.173093505729868 -0.291669173166782 -0.111786216112868
v -0.204101098347146 -0.318189866314055 -0.0183464614435517
v -0.120794897746877 0.238881161641146 0.251220757802847
v -0.187685407822832 0.475911883864823 -0.0320753016248685
v -0.227626241210135 -0.180766588321789 -0.327492669003492
v -0.239607737658747 -0.28541507982073 0.201832817745546
v -0.166882055438723 0.343090921642811 0.166379910129678
v -0.242464754942944 0.444250946154795 0.00479533150329448
v -0.169851982802158 0.278900268358781 -0.183852352117542
v -0.103321696584571 -0.162548331855249 0.359182067023433
v -0.317427737781464 -0.224483794471786 0.0999859837967993
v -0.22131533788889 0.240465768843211 0.122823810933708
v -0.267303959938803 -0.215560298757204 -0.286551157347895
v -0.212169327234387 0.0683000647922114 -0.142601931931231
v -0.324030016061134 -0.174128003425648 -0.18514334881022
v -0.368382703853484 -0.233320960717921 -0.0847824428663433
v -0.335502119277413 0.128749146160549 0.00479630255699462
v -0.416569851687529 -0.191479759764507 -0.0513096074427917
v -0.357546344036523 -0.217126965800157 0.040842586475299
v -0.371811167768455 7.93134431752323E-05 -0.0134933976889611
v -0.193364954556937 0.0309347220456832 0.154121879542398
v 0.308965280598741 -0.141494209294671 -0.120443739209648
v 0.363330967080865 0.128845298677283 -0.128119681386807
v 0.428740054419322 0.161055161929099 0.000585323051208285
v 0.496316873989935 0.0575244280412896 0.0391581709489452
v 0.441649658621035 -0.0738066859162827 -0.0114520386994459
v 0.338821509247009 -0.326635369205493 0.00997724625207852
v 0.40461146442467 -0.299079553420591 0.0742075465791582
v 0.288925061009109 0.34212929379961 -0.0794773968695663
v 0.517713984943322 -0.046840273094973 0.125177127901857
v 0.487729314198926 -0.226474293832951 0.230100925938017
v 0.352538292915681 0.0332616825013424 0.198991824777785
v 0.431467332854533 -0.274530528692446 0.148122774657958
v 0.250284466854067 0.193886709927776 0.0853933032949535
vn 0.5368463 -0.3610075 -0.7625415
vn 0.2348513 -0.9298339 0.283291
vn 0.4498805 0.4596559 0.765718
vn 0.3898415 0.6358285 0.6661424
vn 0.7744948 0.4676425 -0.425991
vn 0.4299012 -0.1732629 -0.8860953
vn 0.5769183 -0.2759488 0.7687766
vn 0.4266692 -0.8573632 -0.287892
vn 0.5102376 0.8239001 -0.2466703
vn 0.2919606 0.6185508 0.7294888
vn 0.201732 -0.8763293 0.4374371
vn 0.09630065 0.01374744 0.9952574
vn 0.330112 0.7693958 0.5468603
vn -0.3705966 -0.8407032 0.3948117
vn -0.3897371 -0.4876406 0.7812245
vn 0.4599143 0.05063748 -0.8865184
vn 0.3149469 -0.1006817 -0.943754
vn 0.3388539 -0.3092543 -0.8885605
vn -0.0971065 -0.9935105 0.05922212
vn -0.2773167 -0.9606284 -0.01698716
vn -0.2284852 0.3442224 0.9106621
vn 0.3597782 0.7071806 0.6086504
vn -0.1220383 0.3348739 -0.9343265
vn -0.09274671 -0.8507251 -0.5173633
vn -0.5617965 0.3172116 0.7640428
vn 0.4048951 0.4743745 -0.7816833
vn -0.160326 -0.9760607 0.1469727
vn -0.2077588 0.5224886 0.8269473
vn -0.2223269 -0.7190123 -0.6584771
vn -0.2586631 0.4597723 0.8495309
vn 0.1131286 0.9561982 -0.2699756
vn -0.5457076 0.1548595 -0.8235422
vn -0.6382667 0.595057 -0.488388
vn -0.3408564 0.02096613 -0.9398816
vn -0.5222062 -0.8051032 -0.281264
vn -0.586459 -0.8088183 -0.04334414
vn -0.3096823 0.5231017 0.794016
vn 0.01071491 0.9714383 0.2370502
vn -0.4755087 -0.03114089 -0.8791596
vn -0.7987745 -0.4589911 0.3889556
vn -0.2886463 0.6523457 0.7008055
vn -0.8490124 0.5266048 0.04319027
vn -0.8218472 0.1965973 -0.5347117
vn -0.7275378 0.03825098 0.6850004
vn -0.8206667 -0.2057196 0.5330906
vn -0.7900212 0.1251603 0.6001678
vn -0.6596121 -0.5480195 -0.5143796
vn -0.802715 0.273554 -0.5299215
vn -0.811389 0.1574942 -0.5628886
vn -0.6243713 -0.7424296 -0.2428143
vn -0.9804497 0.1953786 0.02336142
vn -0.9567077 -0.2654465 -0.1193672
vn -0.7479843 -0.5420567 0.3830065
vn -0.9544375 0.2665931 0.134079
vn -0.7803057 0.09558825 0.61805
vn 0.5531248 -0.2207912 -0.8033082
vn 0.7221803 0.04345676 -0.6903384
vn 0.8153357 0.5672111 0.1161862
vn 0.9372808 0.3317847 -0.1068808
vn 0.7757766 -0.2367635 -0.5849049
vn 0.5955845 -0.6996999 -0.3945873
vn 0.6547388 -0.7435941 -0.135591
vn 0.4605252 0.7537646 0.468781
vn 0.9410885 0.1793662 0.2866708
vn 0.801017 -0.5547609 0.2249714
vn 0.4262105 0.6339597 0.6453214
vn 0.2878771 -0.9336754 0.2130188
vn 0.2977105 0.6304379 0.7168797
f 8//8 61//61 2//2
f 63//63 5//5 9//9
f 11//11 7//7 12//12
f 12//12 7//7 3//3
f 9//9 5//5 16//16
f 18//18 1//1 8//8
f 10//10 66//66 4//4
f 4//4 68//68 13//13
f 13//13 68//68 63//63
f 13//13 63//63 9//9
f 18//18 8//8 24//24
f 12//12 3//3 10//10
f 26//26 9//9 16//16
f 24//24 8//8 19//19
f 19//19 8//8 2//2
f 15//15 11//11 12//12
f 12//12 10//10 21//21
f 19//19 2//2 20//20
f 14//14 2//2 11//11
f 14//14 11//11 15//15
f 31//31 9//9 26//26
f 26//26 16//16 23//23
f 16//16 6//6 17//17
f 20//20 2//2 27//27
f 44//44 15//15 12//12
f 44//44 12//12 21//21
f 22//22 4//4 13//13
f 29//29 18//18 24//24
f 27//27 2//2 14//14
f 25//25 21//21 10//10
f 30//30 4//4 22//22
f 13//13 9//9 31//31
f 23//23 16//16 17//17
f 17//17 6//6 18//18
f 29//29 24//24 35//35
f 35//35 24//24 19//19
f 35//35 19//19 20//20
f 25//25 44//44 21//21
f 25//25 10//10 28//28
f 28//28 10//10 4//4
f 28//28 4//4 30//30
f 31//31 26//26 23//23
f 36//36 20//20 27//27
f 14//14 15//15 44//44
f 38//38 13//13 31//31
f 33//33 31//31 23//23
f 32//32 23//23 17//17
f 39//39 18//18 29//29
f 36//36 35//35 20//20
f 40//40 14//14 44//44
f 55//55 25//25 28//28
f 55//55 28//28 30//30
f 30//30 22//22 37//37
f 38//38 22//22 13//13
f 38//38 31//31 33//33
f 34//34 32//32 17//17
f 34//34 17//17 18//18
f 34//34 18//18 39//39
f 36//36 27//27 14//14
f 36//36 14//14 40//40
f 55//55 44//44 25//25
f 37//37 22//22 41//41
f 41//41 22//22 38//38
f 41//41 38//38 42//42
f 42//42 38//38 33//33
f 43//43 23//23 32//32
f 43//43 32//32 48//48
f 48//48 32//32 34//34
f 48//48 34//34 39//39
f 47//47 39//39 29//29
f 45//45 40//40 44//44
f 43//43 42//42 33//33
f 43//43 33//33 23//23
f 49//49 48//48 39//39
f 49//49 39//39 47//47
f 47//47 29//29 35//35
f 50//50 35//35 36//36
f 45//45 53//53 36//36
f 45//45 36//36 40//40
f 46//46 55//55 30//30
f 46//46 30//30 37//37
f 46//46 41//41 42//42
f 49//49 47//47 50//50
f 50//50 47//47 35//35
f 43//43 48//48 51//51
f 51//51 48//48 54//54
f 54//54 48//48 49//49
f 54//54 49//49 52//52
f 52//52 49//49 50//50
f 52//52 50//50 53//53
f 53//53 50//50 36//36
f 42//42 43//43 51//51
f 54//54 52//52 53//53
f 46//46 42//42 51//51
f 55//55 51//51 54//54
f 45//45 54//54 53//53
f 54//54 45//45 55//55
f 46//46 51//51 55//55
f 55//55 45//45 44//44
f 37//37 41//41 46//46
f 16//16 57//57 56//56
f 16//16 56//56 6//6
f 6//6 56//56 18//18
f 18//18 56//56 1//1
f 16//16 5//5 57//57
f 5//5 63//63 58//58
f 5//5 58//58 57//57
f 57//57 59//59 60//60
f 57//57 60//60 56//56
f 56//56 61//61 1//1
f 1//1 61//61 8//8
f 57//57 58//58 59//59
f 56//56 60//60 61//61
f 63//63 66//66 58//58
f 59//59 64//64 60//60
f 60//60 64//64 62//62
f 60//60 62//62 61//61
f 68//68 66//66 63//63
f 58//58 66//66 59//59
f 64//64 65//65 62//62
f 62//62 65//65 67//67
f 59//59 66//66 64//64
f 62//62 2//2 61//61
f 64//64 7//7 65//65
f 62//62 67//67 2//2
f 65//65 7//7 67//67
f 4//4 66//66 68//68
f 66//66 10//10 3//3
f 66//66 3//3 64//64
f 64//64 3//3 7//7
f 7//7 11//11 67//67
f 67//67 11//11 2//2
