v 0.232264206732147 0.0265807538385864 -0.207813111029809
v 0.300136683607554 0.172706875221628 -0.213702658375395
v -0.204790391178691 -0.026982455572472 -0.403055112503613
v 0.0230168893148522 -0.0802481499134003 -0.500635022228085
v 0.294603781138696 0.280158635071764 -0.240437048217351
v 0.238277754310689 0.351171139597202 -0.24904961689954
v -0.00472229701280738 0.265735475583912 -0.279639560240802
v -0.0408866218396091 -0.221740314659574 -0.290058810513893
v 0.121467801535577 -0.0852092937637932 -0.331975846706979
v -0.334802151558128 -0.0193642236245153 -0.242231845665715
v -0.316552702054351 -0.144770669747066 -0.238107368531743
v -0.263945792020708 -0.204465221619819 -0.234244519259833
v 0.0639647805489264 0.268929615074366 -0.0632386077804134
v -0.168462633627089 0.0664681347156012 -0.102503908035713
v -0.298695321127918 -0.169846517233116 -0.0259772550842043
v 0.0390829545522043 -0.218644120282225 -0.216716010327436
v 0.208847801039399 -0.0823981580953499 -0.218968516764604
v 0.26888149416813 0.200067149332329 0.0360050503746425
v -0.214208449546741 -0.223191970533997 -0.0561132454128334
v 0.195431272505111 -0.0468979588214712 -0.033633698785076
v 0.204822664995809 0.00943601057402819 -0.00192259397352125
v -0.0522861641912645 0.067783579314262 0.00631539854887365
v -0.199516105373551 0.0214386632215065 0.0537645172591043
v 0.206087138710071 0.27077524706788 0.0480838859151855
v 0.114186793262628 0.292899236544311 0.0530596860740667
v -0.316071737389697 -0.0484252871728283 -0.0274473018374239
v 0.0175798326242097 -0.219251805972736 -0.00178314269127427
v 0.0929924669550688 -0.107793904146549 0.00167865585323008
v 0.103743228005375 -0.101875945243021 0.0393974226883042
v 0.230755501885177 -0.0411690406303846 0.128575852796393
v -0.00135833673054319 -0.263585452519671 0.0972159119589739
v -0.0487391017929964 0.133030054120282 0.139849480985106
v -0.31990814998042 -0.252788690052625 0.211343496033557
v -0.0932878662646448 -0.317766044970482 0.209312768921754
v 0.274028320361359 0.215563794494896 0.225275502044936
v 0.129936159855029 0.276045750391854 0.230182871283255
v -0.0968590299572318 0.115686451919219 0.261661715952521
v 0.0415692845770381 -0.250162913819807 0.271923448390912
v 0.238964409220683 0.130032180045104 0.310005388136607
v 0.051518658517241 0.231918491935103 0.293567830197258
v 0.296963885915279 0.0987629259961141 0.261317358140287
v -0.267544445543797 -0.0163704035525176 0.311223523538266
v -0.230162978467287 -0.320940690412361 0.230370648814069
v 0.132583177754187 -0.183518258654302 0.383281093229299
v 0.27151650998921 -0.0518299083323931 0.360056929060327
v -0.161256684095833 -0.0242438122692091 0.39724587963687
v -0.347573957436148 -0.0998737597154887 0.253911030864443
v -0.283741352437985 -0.266380620408734 0.262918125517256
v -0.154382836587835 -0.22642569937454 0.337324417557475
v 0.0625069238794684 0.160496936023109 0.375391749138742
v 0.0165851577862214 -0.135583192473183 0.488241592854575
v -0.0908893304709545 -0.0366920481358655 0.478879195457248
v -0.00055457231641236 -0.0377265070462535 0.55191128926798
v 0.13379091121027 -0.0829642819534322 0.555664259112056
v 0.0905850522348026 0.0617696486203441 0.515061305025876
v 0.116997981080337 -0.0276645516940989 0.584488208263874
v 0.202399424205807 -0.0610076317684484 0.472472478158586
v -0.174575096341655 -0.0373829917604176 -0.448305402738718
v -0.0855712955948684 -0.0630360176593395 -0.497391606719231
v -0.123708037389274 0.14522365617649 -0.224448700093665
v 0.0336089711032792 0.0751581369941129 -0.532390736581124
v 0.0746517885860685 0.0480719141698032 -0.492657499374015
v 0.0541861239220549 0.142215100857178 -0.525127048975523
v 0.0670939773861936 0.189921764078198 -0.490829056007193
v 0.0424692953338427 -0.0224339724228996 -0.508166933568619
v 0.134752142732387 0.369673931665273 -0.278003528814248
v 0.0724735645324644 0.267245648172691 -0.415159743809028
v 0.208313607626325 0.172886319390225 -0.333318065318321
vn 0.8811528 -0.2924874 -0.3715115
vn 0.9578424 -0.2596444 -0.1229744
vn -0.7279865 0.4233526 -0.5392665
vn 0.2355576 -0.6078495 -0.7583084
vn 0.8416936 0.2987312 -0.4497906
vn 0.5962245 0.788007 -0.1534967
vn -0.6663775 0.7397856 -0.0930507
vn 0.1415404 -0.9520761 -0.271141
vn 0.7031414 -0.5121821 -0.4932156
vn -0.8543264 0.4988515 -0.1458548
vn -0.8605375 -0.344835 -0.3749186
vn -0.4139973 -0.8472766 -0.3327591
vn -0.6933997 0.68202 0.2324769
vn -0.4761557 0.8466404 0.2376461
vn -0.869538 -0.4861811 -0.08678459
vn 0.4573755 -0.8595532 -0.2279825
vn 0.8022997 -0.5940096 -0.05888822
vn 0.9916444 0.1286954 -0.008876271
vn -0.2492098 -0.9472568 -0.2014919
vn 0.8339701 -0.5505259 0.03761747
vn 0.9711694 -0.2360327 -0.03344658
vn -0.6314641 0.7711332 0.08128149
vn -0.3974237 0.9172847 -0.02535834
vn 0.4376092 0.8794858 0.1870906
vn -0.3592553 0.9275789 0.1026303
vn -0.852045 0.523193 0.01698188
vn 0.500727 -0.8600389 -0.09800711
vn 0.6897975 -0.7171477 0.09939092
vn 0.6663115 -0.7326068 -0.1389828
vn 0.8227726 -0.5302129 -0.2047429
vn 0.454661 -0.866032 -0.208019
vn -0.7217106 0.6727222 -0.1630294
vn -0.7935905 -0.6084434 -0.00325293
vn 0.1536181 -0.9880214 0.01467318
vn 0.6443081 0.7074863 0.2903965
vn 0.149735 0.8678942 0.4736444
vn -0.5805614 0.8066914 0.1104419
vn 0.5549867 -0.8251923 0.1051075
vn 0.5831044 0.4983944 0.6415546
vn -0.4311508 0.8130448 0.3912379
vn 0.9498343 0.1413819 0.2789733
vn -0.665934 0.6352571 0.3911271
vn -0.3046421 -0.9254047 0.2254314
vn 0.5079442 -0.8499217 0.1400924
vn 0.9118743 -0.3487915 0.2164021
vn -0.6160614 0.3683427 0.69627
vn -0.929836 0.0007212386 0.3679735
vn -0.5968363 -0.424863 0.6806452
vn -0.1065101 -0.7497695 0.6530706
vn -0.5800027 0.6146783 0.5345723
vn -0.1112656 -0.7451154 0.6575887
vn -0.61692 0.1213811 0.7776094
vn -0.4542548 -0.01506705 0.8907444
vn 0.3310622 -0.7137046 0.6172711
vn -0.169328 0.7011085 0.6926578
vn 0.4284768 0.2229937 0.8756034
vn 0.832854 -0.06153833 0.5500612
vn -0.6471208 0.1762168 -0.7417427
vn -0.3788662 -0.4330385 -0.8178864
vn -0.6704621 0.7418094 0.0141248
vn 0.1117922 -0.04976996 -0.9924845
vn 0.7597633 -0.1708978 -0.6273386
vn 0.2916268 0.2422661 -0.9253437
vn 0.01785104 0.5770729 -0.8164976
vn 0.7074723 -0.26008 -0.6571462
vn -0.2329034 0.9719874 -0.03156854
vn -0.2264387 0.7355399 -0.638519
vn 0.7871784 -0.09565523 -0.609262
f 8//8 4//4 9//9
f 13//13 66//66 7//7
f 10//10 3//3 11//11
f 8//8 9//9 16//16
f 17//17 9//9 1//1
f 13//13 7//7 60//60
f 17//17 16//16 9//9
f 17//17 1//1 20//20
f 20//20 1//1 2//2
f 24//24 6//6 66//66
f 13//13 60//60 22//22
f 22//22 60//60 14//14
f 14//14 60//60 10//10
f 26//26 10//10 11//11
f 15//15 11//11 12//12
f 19//19 12//12 8//8
f 21//21 20//20 2//2
f 21//21 2//2 18//18
f 18//18 2//2 5//5
f 18//18 5//5 6//6
f 18//18 6//6 24//24
f 24//24 66//66 25//25
f 25//25 66//66 13//13
f 14//14 10//10 26//26
f 15//15 12//12 19//19
f 27//27 8//8 16//16
f 27//27 16//16 17//17
f 28//28 17//17 20//20
f 22//22 14//14 23//23
f 15//15 26//26 11//11
f 19//19 8//8 27//27
f 27//27 17//17 28//28
f 25//25 13//13 22//22
f 23//23 14//14 26//26
f 29//29 28//28 20//20
f 30//30 20//20 21//21
f 27//27 28//28 29//29
f 29//29 20//20 30//30
f 32//32 25//25 22//22
f 34//34 19//19 27//27
f 35//35 41//41 18//18
f 35//35 18//18 24//24
f 35//35 24//24 25//25
f 35//35 25//25 36//36
f 32//32 22//22 37//37
f 37//37 22//22 23//23
f 47//47 26//26 15//15
f 33//33 15//15 19//19
f 33//33 19//19 43//43
f 43//43 19//19 34//34
f 34//34 27//27 31//31
f 30//30 21//21 18//18
f 36//36 25//25 40//40
f 40//40 25//25 32//32
f 40//40 32//32 37//37
f 37//37 23//23 26//26
f 31//31 27//27 38//38
f 38//38 27//27 29//29
f 44//44 29//29 30//30
f 41//41 35//35 39//39
f 39//39 35//35 36//36
f 42//42 37//37 26//26
f 42//42 26//26 47//47
f 47//47 15//15 33//33
f 34//34 31//31 38//38
f 38//38 29//29 44//44
f 45//45 30//30 18//18
f 45//45 18//18 41//41
f 39//39 36//36 40//40
f 47//47 33//33 48//48
f 48//48 33//33 43//43
f 50//50 40//40 37//37
f 46//46 37//37 42//42
f 49//49 48//48 43//43
f 49//49 34//34 38//38
f 44//44 30//30 45//45
f 45//45 41//41 39//39
f 55//55 39//39 40//40
f 50//50 37//37 46//46
f 49//49 43//43 34//34
f 42//42 47//47 46//46
f 46//46 47//47 48//48
f 52//52 48//48 49//49
f 52//52 46//46 48//48
f 53//53 52//52 49//49
f 49//49 38//38 44//44
f 53//53 49//49 51//51
f 54//54 51//51 49//49
f 54//54 49//49 44//44
f 50//50 46//46 52//52
f 53//53 51//51 54//54
f 56//56 53//53 54//54
f 54//54 44//44 45//45
f 50//50 52//52 53//53
f 50//50 53//53 55//55
f 55//55 53//53 56//56
f 56//56 54//54 57//57
f 57//57 54//54 45//45
f 40//40 50//50 55//55
f 39//39 56//56 57//57
f 39//39 55//55 56//56
f 39//39 57//57 45//45
f 3//3 58//58 11//11
f 11//11 59//59 12//12
f 12//12 59//59 4//4
f 12//12 4//4 8//8
f 10//10 60//60 3//3
f 11//11 58//58 59//59
f 58//58 61//61 59//59
f 59//59 61//61 4//4
f 58//58 63//63 61//61
f 61//61 65//65 4//4
f 4//4 65//65 9//9
f 60//60 67//67 3//3
f 61//61 62//62 65//65
f 3//3 64//64 58//58
f 58//58 64//64 63//63
f 61//61 63//63 62//62
f 60//60 7//7 67//67
f 3//3 67//67 64//64
f 65//65 1//1 9//9
f 65//65 62//62 1//1
f 64//64 68//68 63//63
f 63//63 68//68 62//62
f 7//7 66//66 67//67
f 62//62 68//68 1//1
f 66//66 6//6 67//67
f 67//67 5//5 64//64
f 67//67 6//6 5//5
f 64//64 5//5 68//68
f 68//68 5//5 2//2
f 68//68 2//2 1//1
