v 0.282188153456269 0.253478199637363 0.247378741058217
v 0.372362530264638 -0.0857995495885681 -0.0795136028338615
v 0.112019884883588 -0.378937833825415 -0.120060292841765
v 0.112140852749332 -0.504295322812681 -0.00723422491387144
v -0.0451776143689299 -0.420862522061177 0.168930728101998
v -0.26347705741984 -0.303344447571804 0.22997223580476
v -0.0185202248203317 -0.099496782704367 0.363123814430298
v 0.0763704408578337 -0.542703655497278 0.0262351306318763
v 0.541599975776997 0.0760884806122504 0.10458211941721
v 0.513600378126671 -0.127257739617703 0.111129930409788
v 0.180825977122599 -0.294136452719979 -0.115902527495153
v -0.0277938954848524 -0.545764706559775 -0.0155674044710652
v -0.23052026252213 -0.388764339324347 0.229560659636309
v 0.100859981311052 0.196620604579122 0.315219663300415
v 0.370170049142167 0.288963289209984 0.202234950605436
v 0.545128366330094 0.158003566356116 0.0698316926333727
v -0.129681906032169 0.0815536693574062 0.206894088195178
v -0.192132940306092 -0.532629286505463 -0.0269826846388256
v -0.264205118440564 -0.414340846267468 0.134266853722766
v -0.313676767500735 -0.13911026559926 0.17418698422734
v 0.172520586458289 0.256718703060891 0.293860739840226
v -0.0846850242110415 -0.561030513357442 -0.0576300852455185
v 0.453967147250189 0.163292359040662 -0.0750919029283285
v -0.275662106054668 -0.328670762898389 -0.0540333061730924
v -0.302127957116061 -0.266650771069163 0.176984012846704
v 0.200909949426418 0.299622136413192 0.0809894652376348
v -0.30284402220604 -0.0457649701611983 0.15441739975245
v 0.0931638137974095 0.387891244957563 0.187298656497358
v 0.331441328556004 0.182817920662289 -0.170726145229966
v -0.196349147404257 -0.468710708290301 -0.169849425675203
v -0.279022992898756 0.109536309196671 0.107050086251943
v -0.164999331754969 0.314452687512793 0.0985315926930667
v 0.128131035048489 -0.0776782525632057 -0.199411711717522
v 0.261410910141644 0.177719458556744 -0.237728555878859
v -0.19545319226606 -0.34436561545034 -0.282781367073849
v -0.254188723480278 -0.0854647640185802 -0.102488485824811
v -0.288402908412526 0.0473083999083885 0.12330043760624
v -0.264695974324995 0.24603837783239 0.057400815337403
v 0.204680749024888 0.173981636895039 -0.278270032258822
v -0.0469559365712769 0.410489428164971 0.100244085650822
v 0.0966973083848235 0.245116447349318 -0.0791348482701936
v 0.0158243815968934 -0.112898617856296 -0.271769769147054
v -0.035611183872087 0.347411339988505 -0.0306864897025162
v -0.204759435894424 0.299903739346513 0.067332929751691
v -0.195336812509183 -0.134292378958961 -0.376860161845735
v -0.240222527374197 -0.136474343135063 -0.274263361230593
v -0.00340973129759281 0.277765677879961 -0.217367836550905
v 0.0152972549739742 0.225136154523846 -0.388065182738307
v -0.0852288174214985 0.146280799804999 -0.414954337071748
v -0.128974940491725 0.21436220619534 -0.102099038398192
v -0.172590905576096 0.108169772113313 -0.406598661366013
v -0.18597155661102 0.0217814791771827 -0.388034685495212
v -0.141875629991794 -0.0613634800531612 -0.392378511820982
v -0.216865605179722 -0.0414509873170821 -0.336955851289126
v -0.237672895794531 0.162242788928643 -0.124466399968199
v -0.246107618436309 0.0303939040400935 -0.0311221038519221
v 0.426761889612115 -0.155101330870812 -0.000294849063182592
v 0.295962348193378 -0.127240009819666 0.21496521168936
v 0.434432022117724 -0.293459429938918 0.150605742219251
v 0.37253033114297 -0.379608684409603 0.130531199015789
v 0.283824771745719 -0.489318652154239 0.184167636355783
v 0.203003925123178 -0.460859322507061 0.248212851301164
v 0.124658227077658 -0.00954176276657769 0.253380364739701
v 0.124132230840037 -0.423234762783568 0.286865829605313
v 0.098006737078151 -0.239288149775201 0.313893593455132
v 0.0627262099227952 -0.384309995222418 0.331993480417071
v -0.00570664768656272 -0.363540900105105 0.359714163529411
v 0.0313002279023662 0.0746617711689108 0.327280360135223
vn 0.3576977 -0.03923642 0.9330128
vn 0.5698892 -0.2560162 -0.7808213
vn 0.4820243 -0.4682827 -0.7405159
vn 0.4781508 -0.6942298 -0.5379747
vn -0.1757668 -0.8846309 0.4318962
vn -0.7077222 -0.1471882 0.6909883
vn -0.08837276 0.1312717 0.9873996
vn 0.02530622 -0.9780892 0.2066423
vn 0.7727357 0.01285044 0.6345979
vn 0.9406345 -0.2492951 -0.2303449
vn 0.5187386 -0.3115839 -0.7961317
vn -0.1912143 -0.8145047 0.54774
vn -0.3640118 -0.7513533 0.5504212
vn -0.112077 0.2880724 0.9510273
vn 0.564171 0.5552008 0.6111163
vn 0.9587093 0.2614284 -0.1119457
vn -0.5167392 0.327407 0.7910658
vn -0.5266935 -0.8443059 0.09869944
vn -0.8847718 -0.4408646 0.1510539
vn -0.9610865 0.08614679 0.2624718
vn 0.2692088 0.2229722 0.9369152
vn 0.0618035 -0.9888603 -0.135409
vn 0.7172756 0.3410051 -0.607644
vn -0.9634805 -0.2014055 -0.1764684
vn -0.9580439 -0.1901305 0.2144813
vn 0.3111326 0.8746697 -0.3716848
vn -0.860913 0.282584 0.4230545
vn 0.07674305 0.9102759 0.406827
vn 0.4801925 0.6339643 -0.6062214
vn -0.6858758 -0.6097221 -0.3972574
vn -0.9103127 0.1992491 0.3628094
vn -0.5424894 0.4490273 0.7099857
vn 0.4979766 -0.2998288 -0.8137088
vn 0.5340949 0.6140553 -0.5811014
vn -0.300689 -0.5150058 -0.8027173
vn -0.9722075 0.1671626 -0.1639182
vn -0.9104701 0.2394236 0.3372245
vn -0.8306626 0.5141151 0.2137411
vn 0.5569135 0.02634701 -0.8301525
vn -0.2573203 0.9493415 0.1803801
vn 0.3208462 0.9037333 -0.2834148
vn 0.5268049 -0.3017985 -0.7946032
vn -0.06448165 0.8780891 -0.4741325
vn -0.5681394 0.8012986 -0.1874519
vn -0.6362116 -0.1184645 -0.7623654
vn -0.9643384 0.001500427 -0.2646685
vn -0.008967793 0.9649283 -0.2623602
vn -0.03321079 0.6514293 -0.7579821
vn -0.003846404 0.1463722 -0.9892221
vn -0.491242 0.7874273 -0.3723433
vn -0.6237949 0.2957673 -0.7234651
vn -0.6464057 -0.1406668 -0.749915
vn 0.1097362 -0.2417739 -0.9641076
vn -0.9131034 0.05206482 -0.4043901
vn -0.7957211 0.5358614 -0.2822774
vn -0.9783521 0.06734192 -0.1956843
vn 0.6900909 -0.3868393 -0.6116615
vn 0.3784891 0.007467587 0.9255756
vn 0.7256321 -0.284338 0.626586
vn 0.6933756 -0.5813053 -0.4258103
vn 0.5808142 -0.8071651 0.1055435
vn 0.05373589 -0.7524692 0.6564316
vn 0.4346497 -0.05077966 0.8991669
vn -0.2251011 -0.8768378 0.4248352
vn 0.4236712 0.07868939 0.9023916
vn 0.2029672 -0.4822995 0.8521687
vn -0.08027109 -0.4419257 0.8934531
vn -0.2021558 0.2321043 0.9514519
f 16//16 9//9 10//10
f 14//14 68//68 63//63
f 14//14 63//63 21//21
f 21//21 63//63 1//1
f 16//16 15//15 9//9
f 23//23 16//16 10//10
f 23//23 10//10 57//57
f 3//3 4//4 22//22
f 22//22 4//4 8//8
f 22//22 8//8 12//12
f 12//12 5//5 22//22
f 22//22 5//5 13//13
f 20//20 6//6 7//7
f 23//23 57//57 2//2
f 18//18 22//22 13//13
f 18//18 13//13 19//19
f 19//19 13//13 6//6
f 20//20 7//7 27//27
f 27//27 7//7 68//68
f 21//21 1//1 15//15
f 15//15 16//16 23//23
f 33//33 2//2 11//11
f 19//19 6//6 25//25
f 25//25 6//6 20//20
f 26//26 15//15 23//23
f 35//35 3//3 22//22
f 30//30 22//22 18//18
f 30//30 18//18 19//19
f 30//30 19//19 24//24
f 24//24 19//19 25//25
f 27//27 68//68 17//17
f 14//14 21//21 28//28
f 28//28 21//21 15//15
f 26//26 23//23 29//29
f 35//35 22//22 30//30
f 24//24 25//25 20//20
f 32//32 68//68 14//14
f 28//28 15//15 26//26
f 29//29 23//23 2//2
f 29//29 2//2 34//34
f 17//17 68//68 32//32
f 27//27 17//17 37//37
f 37//37 17//17 31//31
f 31//31 17//17 32//32
f 40//40 14//14 28//28
f 40//40 28//28 26//26
f 41//41 26//26 29//29
f 42//42 33//33 11//11
f 42//42 11//11 3//3
f 35//35 30//30 24//24
f 46//46 24//24 20//20
f 32//32 14//14 40//40
f 35//35 24//24 46//46
f 36//36 20//20 27//27
f 53//53 3//3 35//35
f 56//56 36//36 27//27
f 56//56 27//27 37//37
f 38//38 31//31 32//32
f 39//39 34//34 2//2
f 39//39 2//2 33//33
f 46//46 20//20 36//36
f 43//43 40//40 26//26
f 43//43 26//26 41//41
f 41//41 29//29 34//34
f 53//53 42//42 3//3
f 53//53 35//35 45//45
f 45//45 35//35 46//46
f 44//44 38//38 32//32
f 44//44 32//32 40//40
f 43//43 44//44 40//40
f 47//47 41//41 34//34
f 56//56 37//37 31//31
f 50//50 44//44 43//43
f 47//47 34//34 39//39
f 47//47 39//39 48//48
f 43//43 41//41 47//47
f 48//48 39//39 53//53
f 39//39 33//33 42//42
f 53//53 39//39 42//42
f 49//49 48//48 53//53
f 43//43 47//47 50//50
f 50//50 47//47 55//55
f 55//55 47//47 48//48
f 55//55 48//48 51//51
f 51//51 48//48 49//49
f 51//51 49//49 53//53
f 52//52 51//51 53//53
f 55//55 51//51 54//54
f 54//54 51//51 52//52
f 54//54 52//52 53//53
f 54//54 53//53 45//45
f 54//54 45//45 46//46
f 44//44 50//50 55//55
f 56//56 55//55 54//54
f 38//38 44//44 55//55
f 56//56 54//54 36//36
f 36//36 54//54 46//46
f 38//38 55//55 31//31
f 31//31 55//55 56//56
f 1//1 58//58 15//15
f 9//9 15//15 59//59
f 9//9 59//59 10//10
f 15//15 58//58 59//59
f 10//10 59//59 57//57
f 1//1 63//63 58//58
f 59//59 60//60 57//57
f 57//57 11//11 2//2
f 57//57 60//60 3//3
f 57//57 3//3 11//11
f 58//58 66//66 59//59
f 59//59 61//61 60//60
f 60//60 4//4 3//3
f 66//66 62//62 59//59
f 59//59 62//62 61//61
f 60//60 61//61 4//4
f 63//63 65//65 58//58
f 58//58 65//65 66//66
f 61//61 62//62 8//8
f 61//61 8//8 4//4
f 66//66 64//64 62//62
f 63//63 7//7 65//65
f 64//64 5//5 62//62
f 62//62 5//5 8//8
f 63//63 68//68 7//7
f 65//65 67//67 66//66
f 64//64 66//66 5//5
f 7//7 67//67 65//65
f 66//66 67//67 5//5
f 5//5 12//12 8//8
f 7//7 6//6 67//67
f 67//67 6//6 13//13
f 67//67 13//13 5//5
